<svg width="800" height="600" xmlns="http://www.w3.org/2000/svg">
 <!-- Created with Method Draw - http://github.com/duopixel/Method-Draw/ -->

 <g>
  <title>background</title>
  <rect fill="#fff" id="canvas_background" height="602" width="802" y="-1" x="-1"/>
  <g display="none" overflow="visible" y="0" x="0" height="100%" width="100%" id="canvasGrid">
   <rect fill="url(#gridpattern)" stroke-width="0" y="0" x="0" height="100%" width="100%"/>
  </g>
 </g>
 <g>
  <title>Layer 1</title>
  <g stroke="none" id="svg_64">
   <g fill="#3f3d56" stroke="none" id="svg_33">
    <ellipse transform="matrix(0.6699033017432287,0.0012677315797861193,-0.0009318440080362978,0.4924113177006104,-2486.9335393097413,-1322.799571399879) " stroke="none" fill="#e6e6e6" ry="20" rx="340.5" cy="3491.95676" cx="4306.40311" id="svg_62"/>
    <path stroke="none" fill="#e6e6e6" d="m279.49835,307.37949l-3.00988,-0.0057l1.08663,-43.21015l1.00485,0.0019l0.91839,43.21394z" id="svg_59"/>
    <path stroke="none" fill="#ccc" d="m282.13906,236.96646l4.86858,-5.50926a112.5672,82.74234 0 0 0 -4.96785,-8.58527l-3.14471,1.85931l2.4927,-2.82075c-2.3643,-3.43413 -4.22522,-5.59885 -4.22522,-5.59885s-9.76309,11.26615 -13.0421,23.20983l6.22072,7.09366l-6.89225,-4.11041a45.53936,33.47363 0 0 0 -0.38644,4.1966c-0.02678,14.15141 6.23922,25.63501 13.99536,25.64969s14.06556,-11.44661 14.09234,-25.59654c0.0083,-4.38689 -1.33354,-8.97921 -3.19051,-13.22881l-5.82062,3.4408z" id="svg_58"/>
    <path stroke="none" fill="#e6e6e6" d="m357.84957,307.52776l-3.00988,-0.0057l1.08663,-43.21015l1.00485,0.0019l0.91839,43.21394z" id="svg_57"/>
    <path stroke="none" fill="#ccc" d="m360.49028,237.11473l4.86858,-5.50926a112.55849,82.73593 0 0 0 -4.96785,-8.58527l-3.14471,1.85931l2.4927,-2.82075c-2.3643,-3.43413 -4.22522,-5.59885 -4.22522,-5.59885s-9.76443,11.26714 -13.04009,23.20983l6.21603,7.09266l-6.89225,-4.11041a45.53936,33.47363 0 0 0 -0.38644,4.1966c-0.02678,14.15141 6.23922,25.63501 13.99536,25.64969s14.06556,-11.44661 14.09234,-25.59654c0.0083,-4.38689 -1.33354,-8.97921 -3.19051,-13.22881l-5.81795,3.44179z" id="svg_56"/>
    <path stroke="none" fill="#e6e6e6" d="m315.52225,301.1561l-6.20531,-0.01174l2.23727,-89.09545l2.06799,0.00391l1.90005,89.10328z" id="svg_54"/>
    <path stroke="none" fill="#ccc" d="m320.968,155.97102l10.0386,-11.3587a232.088,170.5959 0 0 0 -10.24352,-17.70243l-6.48457,3.83298l5.13981,-5.8165c-4.87691,-7.08127 -8.71171,-11.54437 -8.71171,-11.54437s-20.1331,23.23137 -26.89148,47.85598l12.82312,14.62678l-14.2141,-8.47523a93.89365,69.01637 0 0 0 -0.79682,8.65314c-0.05522,29.17882 12.86466,52.85731 28.85726,52.88758s29.002,-23.59916 29.05722,-52.77798c0.01712,-9.0456 -2.74909,-18.51452 -6.57308,-27.27637l-12.00072,7.09512z" id="svg_53"/>
    <path stroke="none" fill="#e6e6e6" d="m416.50284,313.23432l-0.11462,60.57053c-0.02325,12.28517 -13.05095,22.21957 -29.09915,22.18969l-143.10876,-0.27082c-16.04753,-0.03037 -29.03821,-10.01401 -29.01563,-22.29967l0.10345,-54.66553c24.85407,-22.25042 60.75328,-35.50865 98.9888,-36.55851s75.31627,10.20499 102.24592,31.03431z" id="svg_52"/>
    <circle transform="matrix(0.6699033017432287,0.0012677315797861193,-0.0009318440080362978,0.4924113177006104,-2486.9335393097413,-1322.799571399879) " stroke="none" opacity="0.2" fill="#6c63ff" r="63.20801" cy="3371.39773" cx="4185.92313" id="svg_51"/>
    <circle transform="matrix(0.6699033017432287,0.0012677315797861193,-0.0009318440080362978,0.4924113177006104,-2486.9335393097413,-1322.799571399879) " stroke="none" fill="#6c63ff" r="50.89502" cy="3371.39772" cx="4185.92311" id="svg_50"/>
    <path stroke="none" fill="#fff" d="m310.09174,353.3288l-11.99457,-11.37824l6.99532,-3.98171l5.67864,5.3874l19.24708,-14.87581l6.41858,4.4872l-26.34506,20.36116z" id="svg_49"/>
    <g transform="matrix(0.6699033017432287,0.0012677315797861193,-0.0009318440080362978,0.4924113177006104,-2486.9335393097413,-1322.799571399879) " stroke="none" id="svg_34">
     <circle stroke="none" fill="#2f2e41" r="33" cy="3259.23673" cx="4456.38914" id="svg_48"/>
     <path stroke="none" fill="#ffb8b8" d="m4469.76211,3444.49374l2.542,11.993l47.47,-4.1l-3.751,-17.7l-46.261,9.807z" id="svg_47"/>
     <path stroke="none" fill="#2f2e41" transform="rotate(-101.96499633789062 4024.6132812500005,4382.240722656251) " d="m4813.80111,5000.74076l38.531,0l0,14.887l-23.644,0a14.887,14.887 0 0 1 -14.887,-14.887z" id="svg_46"/>
     <path stroke="none" fill="#ffb8b8" d="m4440.02311,3443.85374l-5.343,11.035l-45.1,-15.357l7.886,-16.285l42.557,20.607z" id="svg_45"/>
     <path stroke="none" fill="#2f2e41" transform="rotate(-64.16400146484375 3535.9624023437505,3886.1357421875005) " d="m4306.99912,4503.59178l23.644,0l0,14.887l-38.53,0a14.887,14.887 0 0 1 14.886,-14.887z" id="svg_44"/>
     <path stroke="none" fill="#ffb8b8" d="m4351.16211,3422.06073a10.743,10.743 0 0 0 12.709,-10.48l74.374,-68.571l-18.47,-14.305l-67.337,71.942a10.8,10.8 0 0 0 -1.275,21.413l-0.001,0.001z" id="svg_43"/>
     <circle stroke="none" fill="#ffb8b8" r="24.56104" cy="3269.16571" cx="4452.24713" id="svg_42"/>
     <path stroke="none" fill="#6c63ff" d="m4474.28911,3413.53973c-17.229,0 -37.978,-3.628 -50.779,-18.477l-0.288,-0.334l0.3,-0.328c0.1,-0.107 9.514,-10.869 0.111,-30.061l-12.93,3.977l-12.87,-16.989l7.13,-21.389l29.177,-23.5a26.751,26.751 0 0 1 14.609,-5.792a80.211,80.211 0 0 0 27.785,-7.913a27.906,27.906 0 0 1 12.8,-2.8l0.574,0.016a9.95,9.95 0 0 1 9.641,10.708c-1.979,25.63 -5.472,87.543 4.792,108.861l0.265,0.551l-0.592,0.15a136.109,136.109 0 0 1 -29.723,3.319l-0.002,0.001z" id="svg_41"/>
     <path stroke="none" fill="#2f2e41" d="m4426.88911,3394.73673s-65,-6 -72,13s1,28 13,32s41,9 41,9l13,-16l34,2s37.885,21.973 48.36,45.474a30.762,30.762 0 0 0 25.777,18.236c8.4,0.584 15.863,-2.587 15.863,-15.712c0,-30 -42,-73 -42,-73l-77,-14.998z" id="svg_40"/>
     <path stroke="none" fill="#2f2e41" d="m4377.38911,3424.23673s17,-5 44,8" id="svg_39"/>
     <path stroke="none" fill="#2f2e41" d="m4427.74611,3253.50173a73.042,73.042 0 0 0 31.6,10.412l-3.331,-3.991a24.476,24.476 0 0 0 7.561,1.5a8.281,8.281 0 0 0 6.75,-3.159a7.7,7.7 0 0 0 0.516,-7.115a14.589,14.589 0 0 0 -4.589,-5.739a27.323,27.323 0 0 0 -25.431,-4.545a16.33,16.33 0 0 0 -7.6,4.872a9.236,9.236 0 0 0 -1.863,8.561" id="svg_38"/>
     <path stroke="none" fill="#2f2e41" d="m4456.21211,3233.87073a75.485,75.485 0 0 1 19.137,-26.524c5.292,-4.7 11.473,-8.743 18.446,-9.963s14.833,0.87 19.111,6.511c3.5,4.613 4.152,10.793 3.767,16.569s-1.676,11.5 -1.553,17.284a35.468,35.468 0 0 0 50.527,31.351c-6.022,3.329 -10.714,8.6 -16.3,12.608s-12.963,6.76 -19.312,4.11c-6.718,-2.8 -9.8,-10.419 -12.206,-17.29l-10.732,-30.64c-1.824,-5.209 -3.739,-10.572 -7.462,-14.645s-9.765,-6.557 -14.889,-4.509c-3.884,1.552 -6.413,5.258 -8.63,8.8s-4.557,7.32 -8.3,9.179s-9.3,0.715 -10.523,-3.285" id="svg_37"/>
     <path stroke="none" fill="#ffb8b8" d="m4464.63911,3413.62573a11.57,11.57 0 0 1 -1.268,-0.07a11,11 0 0 1 1.251,-21.931a10.626,10.626 0 0 1 1.466,0.109l33.578,-35.745l-3.505,-11.685l17.6,-7.892l4.934,12.06a20.49,20.49 0 0 1 -6.172,23.675l-36.961,29.4a10.238,10.238 0 0 1 0.06,1.079a11.018,11.018 0 0 1 -3.664,8.2a10.872,10.872 0 0 1 -7.319,2.8z" id="svg_36"/>
     <path stroke="none" fill="#6c63ff" d="m4490.88911,3294.73673l0,0a9.453,9.453 0 0 1 12.628,5.156l17.372,43.844l-27,18l-3,-67z" id="svg_35"/>
    </g>
   </g>
  </g>
 </g>
</svg>